<svg width="20" height="20" viewBox="0 0 20 20" fill="none" xmlns="http://www.w3.org/2000/svg">
<path d="M9.99984 7.29167C9.28154 7.29167 8.59267 7.57701 8.08476 8.08492C7.57685 8.59284 7.2915 9.28171 7.2915 10C7.2915 10.7183 7.57685 11.4072 8.08476 11.9151C8.59267 12.423 9.28154 12.7083 9.99984 12.7083C10.7181 12.7083 11.407 12.423 11.9149 11.9151C12.4228 11.4072 12.7082 10.7183 12.7082 10C12.7082 9.28171 12.4228 8.59284 11.9149 8.08492C11.407 7.57701 10.7181 7.29167 9.99984 7.29167Z" fill="white"/>
<path fill-rule="evenodd" clip-rule="evenodd" d="M5.64152 2.56834C8.53822 2.24744 11.4615 2.24744 14.3582 2.56834C15.9407 2.745 17.2165 3.99084 17.4024 5.57917C17.7456 8.5164 17.7456 11.4836 17.4024 14.4208C17.2165 16.0092 15.9407 17.255 14.359 17.4325C11.4621 17.7535 8.53849 17.7535 5.64152 17.4325C4.05902 17.255 2.78319 16.0092 2.59735 14.4217C2.25401 11.4842 2.25401 8.51667 2.59735 5.57917C2.78319 3.99084 4.05902 2.745 5.64152 2.56834ZM14.1665 5C13.9455 5 13.7335 5.0878 13.5773 5.24408C13.421 5.40036 13.3332 5.61232 13.3332 5.83334C13.3332 6.05435 13.421 6.26631 13.5773 6.42259C13.7335 6.57887 13.9455 6.66667 14.1665 6.66667C14.3875 6.66667 14.5995 6.57887 14.7558 6.42259C14.9121 6.26631 14.9999 6.05435 14.9999 5.83334C14.9999 5.61232 14.9121 5.40036 14.7558 5.24408C14.5995 5.0878 14.3875 5 14.1665 5ZM6.04152 10C6.04152 8.95019 6.45856 7.94337 7.20089 7.20104C7.94322 6.45871 8.95004 6.04167 9.99985 6.04167C11.0497 6.04167 12.0565 6.45871 12.7988 7.20104C13.5412 7.94337 13.9582 8.95019 13.9582 10C13.9582 11.0498 13.5412 12.0566 12.7988 12.799C12.0565 13.5413 11.0497 13.9583 9.99985 13.9583C8.95004 13.9583 7.94322 13.5413 7.20089 12.799C6.45856 12.0566 6.04152 11.0498 6.04152 10Z" fill="white"/>
</svg>
